# AST/ASF file generated using VICON BodyLanguage
# -----------------------------------------------
:version 1.10
:name VICON
:units
  mass 1.0
  length 0.45
  angle deg
:documentation
   .ast/.asf automatically generated from VICON data using
   VICON BodyBuilder and BodyLanguage model FoxedUp or BRILLIANT.MOD
:root
   order TX TY TZ RX RY RZ
   axis XYZ
   position 0 0 0  
   orientation 0 0 0 
:bonedata
  begin
     id 1 
     name lhipjoint
     direction 0.521452 -0.77106 0.36545 
     length 2.0933 
     axis 0 0 0  XYZ
  end
  begin
     id 2 
     name lfemur
     direction 0.34202 -0.939693 0  
     length 6.83441  
     axis 0 0 20  XYZ
    dof rx ry rz
    limits (-160.0 20.0)
           (-70.0 70.0)
           (-60.0 70.0)
  end
  begin
     id 3 
     name ltibia
     direction 0.34202 -0.939693 0   
     length 7.28749   
     axis 0 0 20   XYZ
    dof rx
    limits (-10.0 170.0)
  end
  begin
     id 4 
     name lfoot
     direction 0.100608 -0.276418 0.955757   
     length 1.52195   
     axis -90 7.62852e-016 20   XYZ
    dof rx rz
    limits (-45.0 90.0)
           (-70.0 20.0)
  end
  begin
     id 5 
     name ltoes
     direction 1.53558e-011 -4.21907e-011 1   
     length 0.770459   
     axis -90 7.62852e-016 20   XYZ
    dof rx
    limits (-90.0 20.0)
  end
  begin
     id 6 
     name rhipjoint
     direction -0.488071 -0.788702 0.373812   
     length 2.04648  
     axis 0 0 0  XYZ 
  end
  begin
     id 7 
     name rfemur
     direction -0.34202 -0.939693 0   
     length 6.92583   
     axis 0 0 -20   XYZ
    dof rx ry rz
    limits (-160.0 20.0)
           (-70.0 70.0)
           (-70.0 60.0)
  end
  begin
     id 8 
     name rtibia
     direction -0.34202 -0.939693 0   
     length 7.41043   
     axis 0 0 -20   XYZ
    dof rx
    limits (-10.0 170.0)
 end
 begin
     id 9 
     name rfoot
     direction -0.0784433 -0.215521 0.973343   
     length 1.67708  
     axis -90 -7.62852e-016 -20   XYZ
    dof rx rz
    limits (-45.0 90.0)
           (-20.0 70.0)
  end
  begin
     id 10 
     name rtoes
     direction -1.53551e-011 -4.21842e-011 1   
     length 0.849787   
     axis -90 -7.62852e-016 -20   XYZ
    dof rx
    limits (-90.0 20.0)
  end
  begin
     id 11 
     name lowerback
     direction -0.0122332 0.997575 -0.0685192   
     length 1.98724   
     axis 0 0 0   XYZ
    dof rx ry rz
    limits (-20.0 45.0)
           (-30.0 30.0)
           (-30.0 30.0)
  end
  begin
     id 12 
     name upperback
     direction 0.0182347 0.999724 -0.0148421   
     length 1.99029   
     axis 0 0 0   XYZ
    dof rx ry rz
    limits (-20.0 45.0)
           (-30.0 30.0)
           (-30.0 30.0)
  end
  begin
     id 13 
     name thorax
     direction 0.0242908 0.99956 0.0170184   
     length 1.99573   
     axis 0 0 0   XYZ
    dof rx ry rz
    limits (-20.0 45.0)
           (-30.0 30.0)
           (-30.0 30.0)
  end
  begin
     id 14 
     name lowerneck
     direction 0.0654488 0.985533 0.156338   
     length 1.4285   
     axis 0 0 0   XYZ
    dof rx ry rz
    limits (-20.0 45.0)
           (-30.0 30.0)
           (-30.0 30.0)
  end
  begin
     id 15 
     name upperneck
     direction -0.02953 0.998556 -0.0448842   
     length 1.44709   
     axis 0 0 0   XYZ
    dof rx ry rz
    limits (-20.0 45.0)
           (-30.0 30.0)
           (-30.0 30.0)
  end
  begin
     id 16
     name head
     direction -0.0155588 0.999386 -0.0314063  
     length 1.44689  
     axis 0 0 0   XYZ
    dof rx ry rz
    limits (-20.0 45.0)
           (-30.0 30.0)
           (-30.0 30.0)
  end
  begin
     id 17 
     name lclavicle
     direction 0.968229 0.236071 -0.0824755  
     length 3.60593  
     axis 0 0 0   XYZ
    dof ry rz
    limits (-20.0 10.0)
           (0.0 20.0)
  end
  begin
     id 18 
     name lhumerus
     direction 1 -4.48968e-011 7.8138e-029   
     length 5.06035   
     axis 180 -30 -90   XYZ
    dof rx ry rz
    limits (-60.0 90.0)
           (-90.0 90.0)
           (-90.0 90.0)
  end
  begin
     id 19
     name lradius
     direction 1 -4.48967e-011 9.02887e-028   
     length 3.1478   
     axis 180 -30 -90   XYZ
    dof rx
    limits (-10.0 170.0)
  end
  begin
     id 20
     name lwrist
     direction 1 -4.48961e-011 7.20928e-028   
     length 1.5739   
     axis -5.52449e-016 90 90   XYZ
    dof ry
    limits (-180.0 0.0)
 end
  begin
     id 21 
     name lhand
     direction 1 -4.48972e-011 1.44186e-027   
     length 0.606747   
     axis -9.20027e-016 90 90   XYZ
    dof rx rz
    limits (-90.0 90.0)
           (-45.0 45.0)
  end
  begin
     id 22 
     name lfingers
     direction 1 -4.48943e-011 2.88371e-027   
     length 0.489175   
     axis -1.84005e-015 90 90   XYZ
    dof rx
    limits (0.0 90.0)
  end
  begin
     id 23
     name lthumb
     direction 0.707107 -6.34917e-011 0.707107   
     length 0.70236   
     axis -90 45 2.85299e-015   XYZ
    dof rx rz
    limits (-45.0 45.0)
           (-45.0 45.0)
  end
  begin
     id 24 
     name rclavicle
     direction -0.978165 0.207816 0.0022268   
     length 3.35425  
     axis 0 0 0   XYZ 
    dof ry rz
    limits (-10.0 20.0)
           (-20.0 0.0)
  end
  begin
     id 25 
     name rhumerus
     direction -1 -4.48964e-011 -4.02159e-027  
     length 5.12273   
     axis 180 30 90   XYZ
    dof rx ry rz
    limits (-90.0 60.0)
           (-90.0 90.0)
           (-90.0 90.0)
  end
  begin
     id 26 
     name rradius
     direction -1 -4.48966e-011 1.62746e-027   
     length 3.422   
     axis 180 30 90   XYZ
    dof rx
    limits (-10.0 170.0)
  end
  begin
     id 27 
     name rwrist
     direction -1 -4.4896e-011 7.20928e-028   
     length 1.711   
     axis -5.52449e-016 -90 -90   XYZ
    dof ry
    limits (-180.0 0.0)
  end
  begin
     id 28
     name rhand
     direction -1 -4.48979e-011 1.44186e-027   
     length 0.704599   
     axis -9.20027e-016 -90 -90   XYZ
    dof rx rz
    limits (-90.0 90.0)
           (-45.0 45.0)
  end
  begin
     id 29
     name rfingers
     direction -1 -4.48962e-011 2.88371e-027   
     length 0.568066   
     axis -1.84005e-015 -90 -90   XYZ
    dof rx
    limits (0.0 90.0)
  end
  begin
     id 30
     name rthumb
     direction -0.707107 -6.34949e-011 0.707107   
     length 0.815633   
     axis -90 -45 -2.85299e-015   XYZ
    dof rx rz
    limits (-45.0 45.0)
           (-45.0 45.0)
  end
:hierarchy
  begin
    root lhipjoint rhipjoint lowerback
    lhipjoint lfemur
    lfemur ltibia
    ltibia lfoot
    lfoot ltoes
    rhipjoint rfemur
    rfemur rtibia
    rtibia rfoot
    rfoot rtoes
    lowerback upperback
    upperback thorax
    thorax lowerneck lclavicle rclavicle
    lowerneck upperneck
    upperneck head
    lclavicle lhumerus
    lhumerus lradius
    lradius lwrist
    lwrist lhand lthumb
    lhand lfingers
    rclavicle rhumerus
    rhumerus rradius
    rradius rwrist
    rwrist rhand rthumb
    rhand rfingers
  end

#!OML:ASF E:\id_vita\Project 1\Capture day 1\Session 1\Male1.ASF
:FULLY-SPECIFIED
:DEGREES
482
root -21.3167 15.8805 -0.884459 539.933 -29.9003 -536.638
lowerback 1.41802 -1.26265 -5.12088
upperback 1.51234 -1.80882 -2.18044
thorax 0.844571 -0.98197 0.637761
lowerneck -2.59034 -1.54518 1.78112
upperneck -18.1576 -3.23825 0.800455
head -5.04908 -2.26231 0.112492
rclavicle 4.2043e-014 -6.36111e-014
rhumerus -31.8854 -2.5526 -89.261
rradius 33.8548
rwrist 3.97465
rhand -18.9181 36.3643
rfingers 7.12502
rthumb 7.38424 6.51315
lclavicle 4.2043e-014 -6.36111e-014
lhumerus -18.7767 18.7924 73.6372
lradius 18.4049
lwrist -9.46172
lhand -10.8126 46.5371
lfingers 7.12502
lthumb 15.201 75.9587
rfemur -14.9089 5.71843 14.7296
rtibia 62.2148
rfoot -2.88431 -4.99385
rtoes 6.81487
lfemur -16.8361 7.19199 -18.6838
ltibia 38.5264
lfoot -22.0288 0.895527
ltoes 37.7684
483
root -21.3557 15.8746 -0.876894 540.323 -29.6167 -537.061
lowerback 1.35282 -1.20017 -5.44768
upperback 1.47631 -1.73311 -2.30914
thorax 0.846311 -0.949728 0.685925
lowerneck -2.60633 -1.58887 1.74898
upperneck -18.3963 -3.33077 0.823358
head -5.12033 -2.32175 0.132041
rclavicle -2.48481e-015 -6.20208e-014
rhumerus -31.8947 -2.25472 -89.3362
rradius 33.7815
rwrist 3.49446
rhand -19.0285 36.0721
rfingers 7.12502
rthumb 7.27761 6.21728
lclavicle -2.48481e-015 -6.20208e-014
lhumerus -18.7833 18.6828 73.6722
lradius 18.2453
lwrist -9.44551
lhand -10.6912 46.499
lfingers 7.12502
lthumb 15.3179 75.9117
rfemur -15.9602 5.50412 14.6139
rtibia 63.2416
rfoot -2.68924 -6.14971
rtoes 8.23852
lfemur -16.8909 7.36122 -19.274
ltibia 38.4242
lfoot -22.1199 1.0274
ltoes 38.2259
484
root -21.3938 15.8696 -0.870249 540.371 -29.3468 -537.067
lowerback 1.43699 -1.18744 -5.51139
upperback 1.47332 -1.72284 -2.27017
thorax 0.798687 -0.944116 0.763541
lowerneck -2.61736 -1.54333 1.71355
upperneck -18.5286 -3.30273 0.737885
head -5.16029 -2.30953 0.11241
rclavicle 1.91827e-014 -3.97569e-014
rhumerus -31.9386 -1.57123 -89.5094
rradius 33.7333
rwrist 2.41913
rhand -19.4047 36.2364
rfingers 7.12502
rthumb 6.91447 6.36935
lclavicle 1.91827e-014 -3.97569e-014
lhumerus -18.9605 18.6332 73.7338
lradius 18.2799
lwrist -9.33349
lhand -10.5519 46.5767
lfingers 7.12502
lthumb 15.4521 75.9791
rfemur -16.8387 4.78429 14.8062
rtibia 64.12
rfoot -2.5331 -6.62252
rtoes 16.5312
lfemur -16.8515 7.52806 -19.4289
ltibia 38.4243
lfoot -22.2751 1.09335
ltoes 38.8933
485
root -21.43 15.8665 -0.862634 540.344 -29.1235 -536.995
lowerback 1.54978 -1.20617 -5.47234
upperback 1.51374 -1.75581 -2.27923
thorax 0.777242 -0.96109 0.734919
lowerneck -2.79082 -1.46175 1.81995
upperneck -18.4775 -3.2123 0.673854
head -5.11775 -2.27278 0.0685145
rclavicle -8.47817e-014 4.13472e-014
rhumerus -31.9666 -1.58338 -89.6504
rradius 33.7317
rwrist 2.07852
rhand -19.7835 36.5855
rfingers 7.12502
rthumb 6.54887 6.70675
lclavicle -8.47817e-014 4.13472e-014
lhumerus -19.0249 18.9784 73.6019
lradius 18.1402
lwrist -9.6798
lhand -10.4467 46.5325
lfingers 7.12502
lthumb 15.5534 75.9271
rfemur -17.631 3.54987 14.9917
rtibia 64.7959
rfoot -2.9904 -6.16966
rtoes 13.9083
lfemur -16.8123 7.63198 -19.4899
ltibia 38.4761
lfoot -22.4738 1.17578
ltoes 39.2669
486
root -21.4625 15.8586 -0.857498 540.373 -28.9652 -537.038
lowerback 1.6329 -1.24847 -5.59156
upperback 1.53853 -1.82147 -2.2924
thorax 0.763054 -0.996233 0.789631
lowerneck -2.44027 -1.3669 1.84072
upperneck -18.9005 -3.09374 0.734174
head -5.30645 -2.23386 0.0908059
rclavicle -7.85199e-015 1.74931e-014
rhumerus -31.9195 -2.08294 -89.4763
rradius 33.6968
rwrist 2.58837
rhand -19.7211 36.2511
rfingers 7.12502
rthumb 6.60905 6.37427
lclavicle -7.85199e-015 1.74931e-014
lhumerus -19.3 18.7456 73.6148
lradius 18.3449
lwrist -9.4029
lhand -10.898 46.7601
lfingers 7.12502
lthumb 15.1188 76.1879
rfemur -18.2801 3.72604 15.4414
rtibia 65.2748
rfoot -3.38977 -6.64072
rtoes 11.532
lfemur -16.792 7.69911 -19.6462
ltibia 38.5584
lfoot -22.7585 1.29773
ltoes 38.8474
487
root -21.4948 15.8569 -0.854758 540.262 -28.8781 -536.862
lowerback 1.74888 -1.35568 -5.54361
upperback 1.57887 -1.96778 -2.20544
thorax 0.749141 -1.06827 0.855521
lowerneck -2.48349 -1.30816 1.73581
upperneck -18.9557 -3.02441 0.78596
head -5.31354 -2.20288 0.122293
rclavicle 2.72335e-014 6.36111e-015
rhumerus -31.7699 -1.24994 -89.5553
rradius 33.4364
rwrist 2.28629
rhand -19.5712 35.986
rfingers 7.12502
rthumb 6.75378 6.11374
lclavicle 2.72335e-014 6.36111e-015
lhumerus -19.477 19.0904 73.5786
lradius 18.2311
lwrist -9.57811
lhand -11.2891 46.8177
lfingers 7.12502
lthumb 14.7419 76.2735
rfemur -18.9633 2.97563 15.8656
rtibia 65.6159
rfoot -4.15824 -6.097
rtoes 11.437
lfemur -16.7461 7.80928 -19.5905
ltibia 38.6769
lfoot -22.9261 1.44934
ltoes 37.8685
488
root -21.5232 15.8561 -0.85285 540.028 -28.7767 -536.46
lowerback 1.91017 -1.4043 -5.24109
upperback 1.67935 -2.03412 -2.14747
thorax 0.756992 -1.09963 0.750344
lowerneck -2.89648 -1.30587 1.79
upperneck -18.8358 -3.05095 0.799569
head -5.20828 -2.22923 0.111673
rclavicle -3.81667e-014 7.4743e-014
rhumerus -31.6087 -1.55242 -89.5439
rradius 33.2259
rwrist 2.71227
rhand -19.5259 36.3532
rfingers 7.12502
rthumb 6.79754 6.48227
lclavicle -3.81667e-014 7.4743e-014
lhumerus -19.416 19.5597 73.4956
lradius 17.9994
lwrist -10.0853
lhand -11.0434 46.5079
lfingers 7.12502
lthumb 14.9787 75.9462
rfemur -19.7291 0.958999 16.2483
rtibia 65.8394
rfoot -5.21769 -4.06148
rtoes 12.0121
lfemur -16.6833 7.99021 -19.3029
ltibia 38.7394
lfoot -22.8992 1.57194
ltoes 36.9977
489
root -21.5491 15.835 -0.848594 540.087 -28.5477 -536.514
lowerback 1.9901 -1.34491 -5.35504
upperback 1.75893 -1.9655 -2.20986
thorax 0.792225 -1.07107 0.749821
lowerneck -3.17896 -1.31872 1.92668
upperneck -18.8787 -3.10947 0.77501
head -5.17784 -2.27895 0.0806781
rclavicle 2.18663e-015 7.31528e-014
rhumerus -31.7101 -2.00813 -89.55
rradius 33.4958
rwrist 2.84934
rhand -19.7334 36.0821
rfingers 7.12502
rthumb 6.59719 6.20484
lclavicle 2.18663e-015 7.31528e-014
lhumerus -19.3629 19.7569 73.5103
lradius 17.9142
lwrist -10.4598
lhand -10.7605 46.415
lfingers 7.12502
lthumb 15.2512 75.8328
rfemur -20.4597 1.93094 16.8142
rtibia 66.0277
rfoot -5.40726 -4.05912
rtoes 15.8735
lfemur -16.7539 8.26735 -19.4625
ltibia 38.892
lfoot -22.9778 1.65297
ltoes 36.5238
490
root -21.5843 15.8311 -0.841794 540.351 -28.3765 -537.014
lowerback 2.08334 -1.33934 -5.86524
upperback 1.82261 -1.98239 -2.32659
thorax 0.820301 -1.09145 0.914537
lowerneck -3.19166 -1.32038 1.92622
upperneck -19.2247 -3.15805 0.823203
head -5.28345 -2.32877 0.103273
rclavicle 1.55052e-014 -3.81667e-014
rhumerus -31.8042 -2.01694 -89.5307
rradius 33.7943
rwrist 2.77046
rhand -19.7626 35.4914
rfingers 7.12502
rthumb 6.56903 5.61325
lclavicle 1.55052e-014 -3.81667e-014
lhumerus -19.3657 19.8406 73.5528
lradius 17.7817
lwrist -10.6289
lhand -10.7313 46.4926
lfingers 7.12502
lthumb 15.2794 75.9083
rfemur -21.1479 1.78779 16.6889
rtibia 66.0216
rfoot -6.69377 -3.20288
rtoes 12.138
lfemur -16.7483 8.41213 -20.0805
ltibia 39.0154
lfoot -23.1437 1.67169
ltoes 37.0521
491
root -21.6171 15.8101 -0.834792 540.209 -28.403 -536.996
lowerback 2.35807 -1.42357 -5.90942
upperback 1.92009 -2.1172 -2.32031
thorax 0.776633 -1.16186 0.953113
lowerneck -3.50993 -1.10136 2.14983
upperneck -18.9367 -2.86534 0.715842
head -5.14351 -2.18853 0.0137531
rclavicle -6.16232e-015 -4.13472e-014
rhumerus -31.7888 -1.69912 -89.5367
rradius 33.8322
rwrist 2.45664
rhand -19.7731 35.3357
rfingers 7.12502
rthumb 6.55883 5.45729
lclavicle -6.16232e-015 -4.13472e-014
lhumerus -19.3904 20.1355 73.5151
lradius 17.5408
lwrist -11.0083
lhand -10.7623 46.3723
lfingers 7.12502
lthumb 15.2495 75.7902
rfemur -21.6843 0.633364 16.9102
rtibia 65.9312
rfoot -7.88421 -1.72392
rtoes 13.753
lfemur -16.6275 8.30367 -20.1528
ltibia 39.1969
lfoot -23.3833 1.4664
ltoes 38.618
492
root -21.6479 15.8032 -0.829988 540.001 -28.4437 -536.65
lowerback 2.57103 -1.51934 -5.60957
upperback 1.95214 -2.25054 -2.25201
thorax 0.689054 -1.22244 0.864928
lowerneck -3.48462 -1.0191 2.11314
upperneck -19.0072 -2.75777 0.739525
head -5.16783 -2.13943 0.025019
rclavicle 2.56432e-014 -2.8625e-014
rhumerus -31.7686 -1.60673 -89.5091
rradius 33.7058
rwrist 2.4348
rhand -19.8408 35.3635
rfingers 7.12502
rthumb 6.4935 5.48302
lclavicle 2.56432e-014 -2.8625e-014
lhumerus -19.5998 20.0525 73.512
lradius 17.5458
lwrist -11.0333
lhand -10.9564 46.4155
lfingers 7.12502
lthumb 15.0625 75.8475
rfemur -22.1378 0.739866 17.6942
rtibia 65.5737
rfoot -8.1587 -1.31937
rtoes 16.4203
lfemur -16.5285 8.36113 -19.9064
ltibia 39.1978
lfoot -23.481 0.972672
ltoes 40.2202
